<svg width="2658" height="528" viewBox="0 0 2658 528" fill="none" xmlns="http://www.w3.org/2000/svg" shape-rendering="geometricPrecision">
<path d="M2656.47 362.191H2426.86C2428.34 417.956 2430.57 443.98 2443.95 458.851C2455.1 471.491 2470.7 475.209 2512.31 475.209C2564.33 475.209 2579.19 470.747 2587.36 453.646C2591.82 444.724 2593.31 432.827 2594.05 414.982H2656.47C2652.75 467.773 2645.32 487.849 2622.29 504.95C2599.99 521.308 2568.79 528 2513.8 528C2389.7 528 2362.95 494.541 2362.95 341.372C2362.95 188.203 2389.7 154 2511.57 154C2574.73 154 2612.63 163.666 2633.43 195.638C2651.27 223.149 2657.95 267.018 2657.95 336.167C2657.95 340.628 2657.95 350.294 2656.47 362.191ZM2427.6 313.117H2595.54C2594.79 269.248 2592.56 238.763 2582.9 224.636C2571.76 209.022 2550.95 206.048 2513.8 206.048C2478.87 206.048 2456.58 209.022 2445.44 219.431C2432.06 232.072 2429.09 259.582 2427.6 313.117Z" fill="#F9FBF9"/>
<path d="M2303.95 521H2241.48V298.126C2241.48 263.951 2237.76 240.178 2228.09 226.063C2219.16 213.433 2201.31 207.49 2169.33 207.49C2127.68 207.49 2100.16 216.405 2067.43 239.435V521H2004.95V160.686H2065.94V186.688C2102.39 162.915 2132.14 154 2176.77 154C2270.48 154 2303.95 194.86 2303.95 305.555V521Z" fill="#F9FBF9"/>
<path d="M1651.95 160H1714.16V383.482C1714.16 418.494 1717.86 441.587 1727.49 455.741C1736.38 469.15 1753.41 474.364 1784.51 474.364C1825.98 474.364 1852.64 465.425 1883.75 441.587V160H1945.95V521.296H1885.23V495.223C1851.16 519.061 1822.28 528 1779.33 528C1685.28 528 1651.95 488.518 1651.95 376.032V160Z" fill="#F9FBF9"/>
<path d="M1592.95 0V521H1529.95V0H1592.95Z" fill="#F9FBF9"/>
<path d="M1469.47 362.191H1239.86C1241.34 417.956 1243.57 443.98 1256.95 458.851C1268.1 471.491 1283.7 475.209 1325.31 475.209C1377.33 475.209 1392.19 470.747 1400.36 453.646C1404.82 444.724 1406.31 432.827 1407.05 414.982H1469.47C1465.75 467.773 1458.32 487.849 1435.29 504.95C1412.99 521.308 1381.79 528 1326.8 528C1202.7 528 1175.95 494.541 1175.95 341.372C1175.95 188.203 1202.7 154 1324.57 154C1387.73 154 1425.63 163.666 1446.43 195.638C1464.27 223.149 1470.95 267.018 1470.95 336.167C1470.95 340.628 1470.95 350.294 1469.47 362.191ZM1240.6 313.117H1408.54C1407.79 269.248 1405.56 238.763 1395.9 224.636C1384.76 209.022 1363.95 206.048 1326.8 206.048C1291.87 206.048 1269.58 209.022 1258.44 219.431C1245.06 232.072 1242.09 259.582 1240.6 313.117Z" fill="#F9FBF9"/>
<path d="M1120.98 269.992H1058.57C1055.6 217.201 1043.71 207.535 980.555 207.535C904.025 207.535 896.595 218.688 896.595 340.628C896.595 461.081 904.025 474.465 979.812 474.465C1049.65 474.465 1060.8 462.569 1060.8 407.547H1123.95C1122.47 457.364 1114.3 484.131 1092.75 502.72C1072.69 520.565 1037.02 528 981.298 528C858.702 528 831.954 495.284 831.954 340.628C831.954 187.459 858.702 154 981.298 154C1039.25 154 1072.69 162.922 1093.49 183.742C1109.84 201.586 1117.27 225.38 1120.98 269.992Z" fill="#F9FBF9"/>
<path d="M344 190C349 190 350.004 194.419 351.837 201.093C355.572 214.695 360.567 225.757 367.314 238.012C386.847 274.017 417.71 302.628 455.153 319.444C463.837 323.341 472.594 325.871 481.496 329.161C484.931 330.431 492.061 332.235 494.904 333.728C496.239 334.425 497.994 335.881 498 338C497.994 340.119 496.239 341.575 494.904 342.272C492.061 343.765 484.931 345.569 481.496 346.839C472.594 350.129 463.837 352.659 455.153 356.556C417.71 373.372 386.847 401.983 367.314 437.988C360.567 450.243 355.572 461.305 351.837 474.907C350.004 481.581 349 486 344 486C339 486 337.996 481.581 336.163 474.907C332.428 461.305 327.433 450.243 320.686 437.988C301.153 401.983 270.29 373.372 232.847 356.556C224.163 352.659 215.406 350.129 206.504 346.839C203.069 345.569 195.939 343.765 193.096 342.272C191.761 341.575 190.006 340.119 190 338C190.006 335.881 191.761 334.425 193.096 333.728C195.939 332.235 203.069 330.431 206.504 329.161C215.406 325.871 224.163 323.341 232.847 319.444C270.29 302.628 301.153 274.017 320.686 238.012C327.433 225.757 332.428 214.695 336.163 201.093C337.996 194.419 339 190 344 190Z" fill="url(#paint0_linear_5_47)"/>
<path d="M380 148C380.006 145.881 381.761 144.425 383.096 143.728C385.939 142.235 393.069 140.431 396.504 139.161C405.406 135.871 414.163 133.341 422.847 129.444C460.29 112.628 491.153 84.0168 510.686 48.0117C517.433 35.7566 522.428 24.6953 526.163 11.0928C527.996 4.41882 529 0 534 0C539 0 540.004 4.41882 541.837 11.0928C545.572 24.6953 550.567 35.7566 557.314 48.0117C576.847 84.0168 607.71 112.628 645.153 129.444C653.837 133.341 662.594 135.871 671.496 139.161C674.931 140.431 682.061 142.235 684.904 143.728C686.239 144.425 687.994 145.881 688 148H687.999C687.993 150.12 686.238 151.576 684.903 152.273C682.06 153.766 674.93 155.569 671.495 156.839C662.593 160.129 653.837 162.659 645.153 166.556C607.709 183.372 576.846 211.983 557.313 247.988C550.567 260.243 545.572 271.305 541.837 284.907C540.02 291.525 534.962 312.646 535 336.391V339.617C534.962 363.362 540.02 384.483 541.837 391.101C545.572 404.703 550.567 415.764 557.313 428.02C576.846 464.025 607.709 492.636 645.153 509.452C653.837 513.348 662.593 515.879 671.495 519.169C674.93 520.439 682.06 522.241 684.903 523.734C686.238 524.432 687.993 525.888 687.999 528.008H380C380.006 525.888 381.761 524.432 383.096 523.734C385.939 522.241 393.069 520.439 396.504 519.169C405.406 515.879 414.163 513.349 422.847 509.452C460.29 492.636 491.153 464.025 510.686 428.02C517.433 415.764 522.428 404.703 526.163 391.101C527.994 384.431 533.12 363.03 533 339.058V336.95C533.12 312.978 527.994 291.577 526.163 284.907C522.428 271.305 517.433 260.243 510.686 247.988C491.153 211.983 460.29 183.372 422.847 166.556C414.163 162.659 405.406 160.129 396.504 156.839C393.069 155.569 385.939 153.766 383.096 152.273C381.761 151.576 380.006 150.12 380 148Z" fill="#F9FBF9"/>
<path d="M0 148C0.00584352 145.881 1.76075 144.425 3.0957 143.728C5.93868 142.235 13.0689 140.431 16.5039 139.161C25.4059 135.871 34.1632 133.341 42.8467 129.444C80.2904 112.628 111.153 84.0168 130.686 48.0117C137.433 35.7566 142.428 24.6953 146.163 11.0928C147.996 4.41882 149 0 154 0C159 0 160.004 4.41882 161.837 11.0928C165.572 24.6953 170.567 35.7566 177.314 48.0117C196.847 84.0168 227.71 112.628 265.153 129.444C273.837 133.341 282.594 135.871 291.496 139.161C294.931 140.431 302.061 142.235 304.904 143.728C306.239 144.425 307.994 145.881 308 148H307.999C307.993 150.12 306.238 151.576 304.903 152.273C302.06 153.766 294.93 155.569 291.495 156.839C282.593 160.129 273.837 162.659 265.153 166.556C227.709 183.372 196.846 211.983 177.313 247.988C170.567 260.243 165.572 271.305 161.837 284.907C160.02 291.525 154.962 312.646 155 336.391V339.617C154.962 363.362 160.02 384.483 161.837 391.101C165.572 404.703 170.567 415.764 177.313 428.02C196.846 464.025 227.709 492.636 265.153 509.452C273.837 513.348 282.593 515.879 291.495 519.169C294.93 520.439 302.06 522.241 304.903 523.734C306.238 524.432 307.993 525.888 307.999 528.008H0C0.00584406 525.888 1.7607 524.432 3.0957 523.734C5.93867 522.241 13.0689 520.439 16.5039 519.169C25.4059 515.879 34.1632 513.349 42.8467 509.452C80.2904 492.636 111.153 464.025 130.686 428.02C137.433 415.764 142.428 404.703 146.163 391.101C147.994 384.431 153.12 363.03 153 339.058V336.95C153.12 312.978 147.994 291.577 146.163 284.907C142.428 271.305 137.433 260.243 130.686 247.988C111.153 211.983 80.2904 183.372 42.8467 166.556C34.1632 162.659 25.4059 160.129 16.5039 156.839C13.0689 155.569 5.93867 153.766 3.0957 152.273C1.7607 151.576 0.00584406 150.12 0 148Z" fill="#F9FBF9"/>
<defs>
<linearGradient id="paint0_linear_5_47" x1="395" y1="276" x2="285" y2="386" gradientUnits="userSpaceOnUse">
<stop stop-color="#00FF87"/>
<stop offset="1" stop-color="#00D26F"/>
</linearGradient>
</defs>
</svg>
