<svg width="808" height="800" viewBox="0 0 808 800" fill="none" xmlns="http://www.w3.org/2000/svg">
<g filter="url(#filter0_d_7_167)">
<path d="M404 313.93C409.814 313.93 410.982 319.068 413.113 326.828C417.456 342.645 423.264 355.507 431.109 369.757C453.822 411.623 489.709 444.893 533.248 464.446C543.345 468.977 553.528 471.918 563.879 475.744C567.873 477.221 576.164 479.318 579.47 481.054C581.022 481.864 583.063 483.558 583.069 486.022C583.062 488.487 581.022 490.181 579.47 490.991C576.164 492.727 567.873 494.823 563.879 496.3C553.528 500.126 543.345 503.067 533.248 507.598C489.709 527.151 453.822 560.421 431.109 602.288C423.264 616.538 417.456 629.4 413.113 645.217C410.982 652.977 409.814 658.115 404 658.115C398.186 658.115 397.018 652.977 394.887 645.217C390.544 629.4 384.736 616.538 376.891 602.288C354.178 560.421 318.291 527.151 274.752 507.598C264.655 503.067 254.472 500.126 244.121 496.3C240.127 494.823 231.836 492.727 228.53 490.991C227.026 490.206 225.064 488.592 224.937 486.251L224.931 486.022C224.937 483.558 226.978 481.864 228.53 481.054C231.836 479.318 240.127 477.221 244.121 475.744C254.472 471.918 264.655 468.977 274.752 464.446C318.291 444.893 354.178 411.623 376.891 369.757C384.736 355.507 390.544 342.645 394.887 326.828C397.018 319.068 398.186 313.93 404 313.93Z" fill="url(#paint0_linear_7_167)"/>
<path d="M624.931 93C630.744 93.0002 631.912 98.1382 634.043 105.898C638.386 121.715 644.195 134.577 652.04 148.827C674.753 190.694 710.639 223.964 754.179 243.518C764.276 248.048 774.458 250.989 784.81 254.815C788.804 256.292 797.095 258.388 800.4 260.124C801.952 260.935 803.993 262.628 804 265.092C803.993 267.556 801.953 269.25 800.4 270.061C797.095 271.797 788.804 273.894 784.81 275.37C774.458 279.196 764.276 282.137 754.179 286.668C710.639 306.222 674.753 339.491 652.04 381.357C644.195 395.608 638.386 408.47 634.043 424.287C631.956 431.887 626.193 455.935 626.093 483.126V488.929C626.193 516.12 631.956 540.168 634.043 547.768C638.386 563.584 644.195 576.446 652.04 590.696C674.753 632.563 710.639 665.833 754.179 685.387C764.276 689.917 774.458 692.859 784.81 696.685C788.804 698.161 797.095 700.258 800.4 701.994C801.953 702.805 803.993 704.498 804 706.963H445.86C445.867 704.498 447.909 702.805 449.461 701.994C452.767 700.258 461.057 698.161 465.051 696.685C475.402 692.859 485.585 689.917 495.682 685.387C539.221 665.833 575.108 632.563 597.821 590.696C605.666 576.446 611.474 563.584 615.817 547.768C617.902 540.174 623.659 516.156 623.768 488.99V483.064C623.659 455.899 617.902 431.881 615.817 424.287C611.474 408.47 605.667 395.607 597.821 381.357C575.108 339.491 539.221 306.222 495.682 286.668C485.585 282.137 475.402 279.196 465.051 275.37C461.057 273.894 452.767 271.796 449.461 270.061C447.909 269.25 445.867 267.556 445.86 265.092C445.868 262.628 447.909 260.935 449.461 260.124C452.767 258.388 461.057 256.292 465.051 254.815C475.402 250.989 485.585 248.048 495.682 243.518C539.221 223.964 575.108 190.694 597.821 148.827C605.667 134.577 611.474 121.715 615.817 105.898C617.948 98.138 619.117 93 624.931 93Z" fill="#F9FBF9"/>
<path d="M183.069 93C188.883 93 190.052 98.138 192.183 105.898C196.526 121.715 202.333 134.577 210.179 148.827C232.892 190.694 268.779 223.964 312.318 243.518C322.415 248.048 332.598 250.989 342.949 254.815C346.944 256.292 355.234 258.388 358.54 260.124C360.092 260.935 362.132 262.628 362.14 265.092C362.133 267.556 360.091 269.25 358.539 270.061C355.233 271.796 346.943 273.894 342.949 275.37C332.598 279.196 322.415 282.137 312.318 286.668C268.779 306.222 232.892 339.491 210.179 381.357C202.333 395.607 196.526 408.47 192.183 424.287C190.098 431.881 184.341 455.899 184.232 483.064V488.99C184.341 516.156 190.098 540.174 192.183 547.768C196.526 563.584 202.334 576.446 210.179 590.696C232.892 632.563 268.779 665.833 312.318 685.387C322.415 689.917 332.598 692.859 342.949 696.685C346.943 698.161 355.233 700.258 358.539 701.994C360.091 702.805 362.133 704.498 362.14 706.963H4C4.00679 704.498 6.04733 702.805 7.59961 701.994C10.9054 700.258 19.1961 698.161 23.1904 696.685C33.5415 692.859 43.7243 689.917 53.8213 685.387C97.3608 665.833 133.247 632.563 155.96 590.696C163.805 576.446 169.614 563.584 173.957 547.768C176.044 540.168 181.807 516.12 181.907 488.929V483.126C181.807 455.935 176.044 431.887 173.957 424.287C169.614 408.47 163.805 395.607 155.96 381.357C133.247 339.491 97.3606 306.222 53.8213 286.668C43.7243 282.137 33.5415 279.196 23.1904 275.37C19.1962 273.894 10.9054 271.797 7.59961 270.061C6.04732 269.25 4.00679 267.556 4 265.092C4.00748 262.628 6.04755 260.935 7.59961 260.124C10.9053 258.388 19.1961 256.292 23.1904 254.815C33.5415 250.989 43.7243 248.048 53.8213 243.518C97.3608 223.964 133.247 190.694 155.96 148.827C163.805 134.577 169.614 121.715 173.957 105.898C176.088 98.1382 177.256 93.0003 183.069 93Z" fill="#F9FBF9"/>
</g>
<defs>
<filter id="filter0_d_7_167" x="0" y="0" width="808" height="808" filterUnits="userSpaceOnUse" color-interpolation-filters="sRGB">
<feFlood flood-opacity="0" result="BackgroundImageFix"/>
<feColorMatrix in="SourceAlpha" type="matrix" values="0 0 0 0 0 0 0 0 0 0 0 0 0 0 0 0 0 0 127 0" result="hardAlpha"/>
<feOffset dy="4"/>
<feGaussianBlur stdDeviation="2"/>
<feComposite in2="hardAlpha" operator="out"/>
<feColorMatrix type="matrix" values="0 0 0 0 0 0 0 0 0 0 0 0 0 0 0 0 0 0 0.25 0"/>
<feBlend mode="normal" in2="BackgroundImageFix" result="effect1_dropShadow_7_167"/>
<feBlend mode="normal" in="SourceGraphic" in2="effect1_dropShadow_7_167" result="shape"/>
</filter>
<linearGradient id="paint0_linear_7_167" x1="463.302" y1="413.93" x2="335.395" y2="541.836" gradientUnits="userSpaceOnUse">
<stop stop-color="#00FF87"/>
<stop offset="1" stop-color="#00D26F"/>
</linearGradient>
</defs>
</svg>
