<svg width="808" height="622" viewBox="0 0 808 622" fill="none" xmlns="http://www.w3.org/2000/svg">
<g filter="url(#filter0_d_10_301)">
<g clip-path="url(#clip0_10_301)">
<path d="M404 220.93C409.814 220.93 410.982 226.068 413.113 233.828C417.456 249.645 423.264 262.507 431.109 276.757C453.822 318.624 489.709 351.894 533.248 371.447C543.345 375.978 553.528 378.919 563.879 382.745C567.873 384.221 576.164 386.318 579.47 388.054C581.022 388.864 583.062 390.558 583.069 393.022L583.063 393.251C582.936 395.592 580.974 397.206 579.47 397.991C576.164 399.727 567.873 401.823 563.879 403.3C553.528 407.126 543.345 410.067 533.248 414.598C489.709 434.151 453.822 467.421 431.109 509.288C423.264 523.538 417.456 536.4 413.113 552.217C410.982 559.977 409.814 565.115 404 565.115C398.186 565.115 397.018 559.977 394.887 552.217C390.544 536.4 384.736 523.538 376.891 509.288C354.178 467.421 318.291 434.151 274.752 414.598C264.655 410.067 254.472 407.126 244.121 403.3C240.127 401.823 231.836 399.727 228.53 397.991C227.026 397.206 225.064 395.592 224.937 393.251L224.931 393.022C224.938 390.558 226.978 388.864 228.53 388.054C231.836 386.318 240.127 384.221 244.121 382.745C254.472 378.919 264.655 375.978 274.752 371.447C318.291 351.894 354.178 318.624 376.891 276.757C384.736 262.507 390.544 249.645 394.887 233.828C397.018 226.068 398.186 220.93 404 220.93Z" fill="url(#paint0_linear_10_301)"/>
<path d="M624.931 0C630.744 0.000184817 631.912 5.1382 634.043 12.8984C638.386 28.7154 644.195 41.577 652.04 55.8271C674.753 97.6938 710.639 130.964 754.179 150.518C764.276 155.048 774.458 157.989 784.81 161.815C788.804 163.292 797.095 165.388 800.4 167.124C801.952 167.935 803.993 169.628 804 172.092C803.993 174.556 801.953 176.25 800.4 177.061C797.095 178.797 788.804 180.894 784.81 182.37C774.458 186.196 764.276 189.137 754.179 193.668C710.639 213.222 674.753 246.491 652.04 288.357C644.195 302.607 638.386 315.469 634.043 331.286C631.956 338.885 626.193 362.934 626.093 390.126V395.929C626.193 423.12 631.956 447.169 634.043 454.769C638.386 470.585 644.195 483.447 652.04 497.697C674.753 539.564 710.639 572.833 754.179 592.387C764.276 596.917 774.458 599.859 784.81 603.685C788.804 605.161 797.095 607.258 800.4 608.994C801.953 609.805 803.993 611.498 804 613.963H445.86C445.867 611.498 447.909 609.805 449.461 608.994C452.767 607.258 461.057 605.161 465.051 603.685C475.402 599.859 485.585 596.917 495.682 592.387C539.221 572.833 575.108 539.564 597.821 497.697C605.667 483.447 611.474 470.585 615.817 454.769C617.902 447.175 623.659 423.156 623.768 395.99V390.064C623.659 362.898 617.902 338.88 615.817 331.286C611.474 315.469 605.667 302.607 597.821 288.357C575.108 246.491 539.221 213.222 495.682 193.668C485.585 189.137 475.402 186.196 465.051 182.37C461.057 180.894 452.767 178.796 449.461 177.061C447.909 176.25 445.867 174.556 445.86 172.092C445.868 169.628 447.909 167.935 449.461 167.124C452.767 165.388 461.057 163.292 465.051 161.815C475.402 157.989 485.585 155.048 495.682 150.518C539.221 130.964 575.108 97.6938 597.821 55.8271C605.667 41.5771 611.474 28.7153 615.817 12.8984C617.948 5.13803 619.117 0 624.931 0Z" fill="#F9FBF9"/>
<path d="M183.069 0C188.883 0 190.052 5.13803 192.183 12.8984C196.526 28.7153 202.333 41.5771 210.179 55.8271C232.892 97.6938 268.779 130.964 312.318 150.518C322.415 155.048 332.598 157.989 342.949 161.815C346.944 163.292 355.234 165.388 358.54 167.124C360.092 167.935 362.132 169.628 362.14 172.092C362.133 174.556 360.091 176.25 358.539 177.061C355.233 178.796 346.943 180.894 342.949 182.37C332.598 186.196 322.415 189.137 312.318 193.668C268.779 213.222 232.892 246.491 210.179 288.357C202.333 302.607 196.526 315.469 192.183 331.286C190.098 338.88 184.341 362.898 184.232 390.064V395.99C184.341 423.156 190.098 447.175 192.183 454.769C196.526 470.585 202.333 483.447 210.179 497.697C232.892 539.564 268.779 572.833 312.318 592.387C322.415 596.917 332.598 599.859 342.949 603.685C346.943 605.161 355.233 607.258 358.539 608.994C360.091 609.805 362.133 611.498 362.14 613.963H4C4.0068 611.498 6.04731 609.805 7.59961 608.994C10.9054 607.258 19.1962 605.161 23.1904 603.685C33.5416 599.859 43.7242 596.917 53.8213 592.387C97.3607 572.833 133.247 539.564 155.96 497.697C163.805 483.447 169.614 470.585 173.957 454.769C176.044 447.169 181.807 423.12 181.907 395.929V390.126C181.807 362.934 176.044 338.885 173.957 331.286C169.614 315.469 163.805 302.607 155.96 288.357C133.247 246.491 97.3607 213.222 53.8213 193.668C43.7242 189.137 33.5416 186.196 23.1904 182.37C19.1962 180.894 10.9054 178.797 7.59961 177.061C6.04731 176.25 4.0068 174.556 4 172.092C4.00748 169.628 6.04755 167.935 7.59961 167.124C10.9053 165.388 19.1961 163.292 23.1904 161.815C33.5415 157.989 43.7243 155.048 53.8213 150.518C97.3608 130.964 133.247 97.6938 155.96 55.8271C163.805 41.577 169.614 28.7154 173.957 12.8984C176.088 5.13824 177.256 0.000251714 183.069 0Z" fill="#F9FBF9"/>
</g>
</g>
<defs>
<filter id="filter0_d_10_301" x="0" y="0" width="808" height="622" filterUnits="userSpaceOnUse" color-interpolation-filters="sRGB">
<feFlood flood-opacity="0" result="BackgroundImageFix"/>
<feColorMatrix in="SourceAlpha" type="matrix" values="0 0 0 0 0 0 0 0 0 0 0 0 0 0 0 0 0 0 127 0" result="hardAlpha"/>
<feOffset dy="4"/>
<feGaussianBlur stdDeviation="2"/>
<feComposite in2="hardAlpha" operator="out"/>
<feColorMatrix type="matrix" values="0 0 0 0 0 0 0 0 0 0 0 0 0 0 0 0 0 0 0.25 0"/>
<feBlend mode="normal" in2="BackgroundImageFix" result="effect1_dropShadow_10_301"/>
<feBlend mode="normal" in="SourceGraphic" in2="effect1_dropShadow_10_301" result="shape"/>
</filter>
<linearGradient id="paint0_linear_10_301" x1="463.302" y1="320.93" x2="335.395" y2="448.836" gradientUnits="userSpaceOnUse">
<stop stop-color="#00FF87"/>
<stop offset="1" stop-color="#00D26F"/>
</linearGradient>
<clipPath id="clip0_10_301">
<rect width="800" height="614" fill="white" transform="translate(4)"/>
</clipPath>
</defs>
</svg>
