<svg width="3075" height="560" viewBox="0 0 3075 560" fill="none" xmlns="http://www.w3.org/2000/svg">
<path d="M0 286.783C0.418014 294.927 0.732567 298.326 1.07324 302.691C1.79194 313.265 3.23372 323.778 5.38867 334.162C19.8404 405.384 61.7897 468.335 122.433 509.802C157.348 533.817 197.362 549.706 239.445 556.272C247.253 557.449 254.752 558.262 262.595 558.984C265.052 559.211 273.353 559.467 276.755 559.831L276.852 559.841C277.593 559.92 278.336 560 279.082 560L291.155 559.782C292.024 559.782 293.005 559.751 293.869 559.662C297.32 559.308 305.699 558.823 308 558.617C315.756 557.927 323.267 556.573 331 555.366C375.076 546.523 406.773 532.646 442.486 507.281C493.508 471.264 528.958 422.151 547 363C552.38 345.361 558.089 323.472 545.092 310.212C541 306.037 543.019 308.022 542 307C526.533 291.489 488.173 288.283 448.758 291.669C404.315 295.487 362.652 317.986 334.043 351.318C310.918 378.191 296.607 411.314 292.985 446.332C292.647 449.351 292.254 453.645 292.018 457.893C291.693 463.727 286.788 468.707 280.846 468.613C280.399 468.606 279.952 468.599 279.505 468.593C273.874 468.51 269.167 463.948 268.795 458.424C268.589 455.371 268.36 452.456 268.219 450.802C265.117 410.501 247.875 372.51 219.439 343.321C195.16 318.37 162.635 300.217 128.028 293.848C120.505 292.463 113.594 291.717 106.398 291.313C100.954 291.008 96.5904 286.669 96.584 281.308V278.692C96.5904 273.331 100.954 268.992 106.398 268.687C113.594 268.283 120.505 267.537 128.028 266.152C162.635 259.783 195.16 241.63 219.439 216.679C247.875 187.49 265.117 149.499 268.219 109.198C268.36 107.544 268.589 104.629 268.795 101.576C269.167 96.0522 273.874 91.4901 279.505 91.4072C279.952 91.4006 280.399 91.3937 280.846 91.3867C286.788 91.2935 291.693 96.273 292.018 102.107C292.254 106.355 292.647 110.649 292.985 113.668C296.607 148.686 310.918 181.809 334.043 208.682C362.652 242.014 404.315 264.513 448.758 268.331C488.173 271.717 526.533 268.511 542 253C543.019 251.978 541 253.963 545.092 249.788C558.089 236.528 552.38 214.639 547 197C528.958 137.849 493.508 88.7362 442.486 52.7188C406.773 27.3542 375.076 13.4768 331 4.63379C323.267 3.42675 315.756 2.07255 308 1.38281C305.699 1.17719 297.32 0.691614 293.869 0.337891C293.005 0.249302 292.024 0.2178 291.155 0.217773L279.082 0C278.336 1.01279e-05 277.593 0.0796204 276.852 0.15918L276.755 0.168945C273.353 0.532942 265.052 0.789214 262.595 1.01562C254.752 1.73822 247.253 2.5506 239.445 3.72754C197.362 10.2938 157.348 26.183 122.433 50.1982C61.7897 91.6652 19.8404 154.616 5.38867 225.838C3.23372 236.222 1.79194 246.735 1.07324 257.309C0.732567 261.674 0.418014 265.073 0 273.217V286.783Z" fill="url(#paint0_linear_11_508)"/>
<path d="M3072.43 374.045H2797.56C2799.06 432.624 2805.07 451.399 2820.84 462.665C2832.1 470.926 2847.87 473.179 2895.19 473.179C2979.3 473.179 2991.32 466.42 2993.57 419.106H3072.43C3068.67 467.922 3061.16 488.199 3040.14 506.224C3013.1 529.505 2980.8 537.767 2899.69 537.767C2753.25 537.767 2717.2 501.718 2717.2 347.759C2717.2 193.049 2754 157 2896.69 157C2982.31 157 3015.35 167.514 3040.89 196.804C3058.16 215.579 3067.92 243.367 3072.43 285.424C3073.93 301.947 3074.68 320.722 3074.68 341.751C3074.68 356.02 3074.68 361.277 3072.43 374.045ZM2797.56 313.963H2997.33C2994.32 260.641 2990.57 245.62 2979.3 235.106C2968.04 225.343 2944.76 221.588 2900.45 221.588C2858.39 221.588 2830.6 225.343 2819.34 232.853C2805.07 241.865 2799.81 258.388 2797.56 313.963Z" fill="#F9FBF9"/>
<path d="M2657.2 530.256H2578.34V305.702C2578.34 271.906 2573.08 251.628 2561.07 239.612C2549.8 229.098 2532.53 223.841 2495.73 223.841C2446.16 223.841 2422.88 229.098 2373.31 255.383V530.256H2294.46V164.51H2371.06V191.547C2422.88 163.759 2446.91 157 2500.23 157C2611.39 157 2657.2 201.31 2657.2 313.212V530.256Z" fill="#F9FBF9"/>
<path d="M1876.22 164H1955.08V389.306C1955.08 423.102 1959.58 441.877 1971.6 454.644C1981.36 465.159 1998.63 470.416 2035.43 470.416C2081.25 470.416 2115.04 463.657 2155.6 438.122V164H2234.45V529.746H2156.35V503.461C2111.29 531.248 2082 537.256 2033.93 537.256C1919.78 537.256 1876.22 494.448 1876.22 382.546V164Z" fill="#F9FBF9"/>
<path d="M1816.22 4V529.713H1737.36V4H1816.22Z" fill="#F9FBF9"/>
<path d="M1675.11 374.045H1400.24C1401.74 432.624 1407.75 451.399 1423.52 462.665C1434.78 470.926 1450.55 473.179 1497.87 473.179C1581.98 473.179 1594 466.42 1596.25 419.106H1675.11C1671.35 467.922 1663.84 488.199 1642.81 506.224C1615.78 529.505 1583.48 537.767 1502.37 537.767C1355.92 537.767 1319.88 501.718 1319.88 347.759C1319.88 193.049 1356.68 157 1499.37 157C1584.99 157 1618.03 167.514 1643.57 196.804C1660.84 215.579 1670.6 243.367 1675.11 285.424C1676.61 301.947 1677.36 320.722 1677.36 341.751C1677.36 356.02 1677.36 361.277 1675.11 374.045ZM1400.24 313.963H1600.01C1597 260.641 1593.25 245.62 1581.98 235.106C1570.72 225.343 1547.43 221.588 1503.12 221.588C1461.07 221.588 1433.28 225.343 1422.01 232.853C1407.75 241.865 1402.49 258.388 1400.24 313.963Z" fill="#F9FBF9"/>
<path d="M1256.12 182.718H1172.01C1165.25 127.894 1159.99 115.126 1141.97 105.363C1126.95 96.3509 1109.67 94.0978 1040.58 94.0978C964.725 94.0978 940.693 97.1019 924.921 112.122C905.395 130.147 900.889 162.441 900.889 279.6C900.889 394.505 906.146 430.554 924.17 447.828C939.942 462.097 962.472 465.852 1040.58 465.852C1108.17 465.852 1130.7 462.848 1146.47 453.085C1162.99 442.571 1166.75 430.554 1175.01 371.975H1259.88C1252.37 447.828 1240.35 477.118 1208.81 503.403C1176.51 529.689 1138.21 537.95 1045.08 537.95C937.689 537.95 897.134 529.689 863.338 498.897C824.285 463.599 814.521 419.289 814.521 280.351C814.521 140.661 824.285 96.3509 863.338 61.053C897.134 30.2612 937.689 22 1045.84 22C1136.71 22 1173.51 30.2612 1205.05 56.5469C1236.59 81.3305 1247.11 108.367 1256.12 182.718Z" fill="#F9FBF9"/>
<defs>
<linearGradient id="paint0_linear_11_508" x1="391.5" y1="189.189" x2="116.659" y2="494.382" gradientUnits="userSpaceOnUse">
<stop stop-color="#67FFB7"/>
<stop offset="1" stop-color="#0FBA69"/>
</linearGradient>
</defs>
</svg>
