<svg width="1500" height="1152" viewBox="0 0 1500 1152" fill="none" xmlns="http://www.w3.org/2000/svg">
<path d="M750 417C760.844 417 763.023 426.614 766.997 441.134C775.098 470.729 785.932 494.795 800.565 521.458C842.929 599.793 909.864 662.042 991.073 698.629C1009.91 707.106 1028.9 712.611 1048.21 719.769C1055.66 722.532 1071.12 726.456 1077.29 729.705C1080.18 731.221 1083.99 734.389 1084 739C1083.99 743.611 1080.18 746.779 1077.29 748.295C1071.12 751.544 1055.66 755.468 1048.21 758.231C1028.9 765.389 1009.91 770.894 991.073 779.371C909.864 815.958 842.929 878.207 800.565 956.542C785.932 983.205 775.098 1007.27 766.997 1036.87C763.023 1051.39 760.844 1061 750 1061C739.156 1061 736.977 1051.39 733.003 1036.87C724.902 1007.27 714.068 983.205 699.435 956.542C657.071 878.207 590.136 815.958 508.927 779.371C490.094 770.894 471.101 765.389 451.794 758.231C444.344 755.468 428.88 751.544 422.714 748.295C419.819 746.779 416.013 743.611 416 739C416.013 734.389 419.819 731.221 422.714 729.705C428.88 726.456 444.344 722.532 451.794 719.769C471.101 712.611 490.094 707.106 508.927 698.629C590.136 662.042 657.071 599.793 699.435 521.458C714.068 494.795 724.902 470.729 733.003 441.134C736.977 426.614 739.156 417 750 417Z" fill="url(#paint0_linear_71_54)"/>
<path d="M826 322.904C826.013 318.28 829.853 315.104 832.774 313.583C838.996 310.325 854.599 306.39 862.116 303.62C881.596 296.441 900.76 290.921 919.762 282.42C1001.7 245.731 1069.24 183.307 1111.98 104.751C1126.75 78.0133 1137.68 53.8798 1145.85 24.2021C1149.86 9.64092 1152.06 0 1163 0C1173.94 0 1176.14 9.64092 1180.15 24.2021C1188.32 53.8798 1199.25 78.0133 1214.02 104.751C1256.76 183.307 1324.3 245.731 1406.24 282.42C1425.24 290.921 1444.4 296.441 1463.88 303.62C1471.4 306.39 1487 310.325 1493.23 313.583C1496.15 315.104 1499.99 318.28 1500 322.904H1500C1499.99 327.529 1496.14 330.707 1493.22 332.228C1487 335.485 1471.4 339.419 1463.88 342.189C1444.4 349.368 1425.24 354.888 1406.24 363.389C1324.3 400.078 1256.76 462.502 1214.02 541.057C1199.25 567.795 1188.32 591.929 1180.15 621.607C1176.17 636.044 1165.1 682.126 1165.19 733.932V740.972C1165.1 792.778 1176.17 838.86 1180.15 853.298C1188.32 882.975 1199.25 907.109 1214.02 933.847C1256.76 1012.4 1324.3 1074.83 1406.24 1111.52C1425.24 1120.02 1444.4 1125.54 1463.88 1132.72C1471.4 1135.49 1487 1139.42 1493.22 1142.68C1496.14 1144.2 1499.99 1147.38 1500 1152H826C826.013 1147.38 829.853 1144.2 832.774 1142.68C838.996 1139.42 854.599 1135.49 862.116 1132.72C881.596 1125.54 900.76 1120.02 919.762 1111.52C1001.7 1074.83 1069.24 1012.4 1111.98 933.847C1126.75 907.109 1137.68 882.975 1145.85 853.298C1149.86 838.747 1161.07 792.053 1160.81 739.751V735.153C1161.07 682.851 1149.86 636.158 1145.85 621.607C1137.68 591.929 1126.75 567.795 1111.98 541.057C1069.24 462.502 1001.7 400.078 919.762 363.389C900.76 354.888 881.596 349.368 862.116 342.189C854.599 339.419 838.996 335.485 832.774 332.228C829.853 330.707 826.013 327.529 826 322.904Z" fill="#F9FBF9"/>
<path d="M0 322.904C0.0127874 318.28 3.85306 315.104 6.77436 313.583C12.9957 310.325 28.5988 306.39 36.1157 303.62C55.5961 296.441 74.7597 290.921 93.7619 282.42C175.7 245.731 243.237 183.307 285.981 104.751C300.745 78.0133 311.677 53.8798 319.85 24.2021C323.86 9.64092 326.058 0 337 0C347.942 0 350.14 9.64092 354.15 24.2021C362.323 53.8798 373.255 78.0133 388.019 104.751C430.763 183.307 498.3 245.731 580.238 282.42C599.24 290.921 618.404 296.441 637.884 303.62C645.401 306.39 661.004 310.325 667.226 313.583C670.147 315.104 673.987 318.28 674 322.904H673.998C673.985 327.529 670.145 330.707 667.223 332.228C661.002 335.485 645.399 339.419 637.882 342.189C618.402 349.368 599.24 354.888 580.238 363.389C498.299 400.078 430.761 462.502 388.017 541.057C373.253 567.795 362.323 591.929 354.15 621.607C350.173 636.044 339.105 682.126 339.188 733.932V740.972C339.105 792.778 350.173 838.86 354.15 853.298C362.323 882.975 373.253 907.109 388.017 933.847C430.761 1012.4 498.299 1074.83 580.238 1111.52C599.24 1120.02 618.402 1125.54 637.882 1132.72C645.399 1135.49 661.002 1139.42 667.223 1142.68C670.145 1144.2 673.985 1147.38 673.998 1152H0C0.0127886 1147.38 3.85296 1144.2 6.77436 1142.68C12.9957 1139.42 28.5987 1135.49 36.1157 1132.72C55.596 1125.54 74.7597 1120.02 93.7619 1111.52C175.7 1074.83 243.236 1012.4 285.981 933.847C300.745 907.109 311.677 882.975 319.85 853.298C323.858 838.747 335.073 792.053 334.812 739.751V735.153C335.073 682.851 323.858 636.158 319.85 621.607C311.677 591.929 300.745 567.795 285.981 541.057C243.236 462.502 175.7 400.078 93.7619 363.389C74.7597 354.888 55.596 349.368 36.1157 342.189C28.5987 339.419 12.9957 335.485 6.77436 332.228C3.85296 330.707 0.0127886 327.529 0 322.904Z" fill="#F9FBF9"/>
<defs>
<linearGradient id="paint0_linear_71_54" x1="860.61" y1="604.108" x2="621.287" y2="842.678" gradientUnits="userSpaceOnUse">
<stop stop-color="#00FF87"/>
<stop offset="1" stop-color="#00D26F"/>
</linearGradient>
</defs>
</svg>
